<svg xmlns="http://www.w3.org/2000/svg" version="1.1" xmlns:xlink="http://www.w3.org/1999/xlink" xmlns:svgjs="http://svgjs.com/svgjs" width="512" height="512"><svg id="SvgjsSvg1006" data-name="Layer 1" xmlns="http://www.w3.org/2000/svg" viewBox="0 0 512 512">
  <defs>
    <style>
      .cls-1 {
        fill: #fff;
        stroke-width: 0px;
      }

      .cls-2 {
        fill: #f6b40e;
      }

      .cls-2, .cls-3 {
        stroke: #000;
        stroke-miterlimit: 10;
      }

      .cls-3 {
        fill: #74acdf;
      }
    </style>
  </defs>
  <circle id="SvgjsCircle1005" class="cls-1" cx="256" cy="256" r="256"></circle>
  <path id="SvgjsPath1004" class="cls-3" d="m336.11,292.56l50.52,128.44s2.04,4-2.07,4.78-24.44,1.44-24.44,1.44l-49.26-125.11"></path>
  <path id="SvgjsPath1003" class="cls-3" d="m286.33,314.48l48.74,122.74-18.78,15.41s-3.19,2.7-5.13-1.35-47.35-120.43-47.35-120.43l-47.7,120.3s-.74,3.56-4.52,1.78-19.11-15.63-19.11-15.63l46.89-118.37"></path>
  <path id="SvgjsPath1002" class="cls-3" d="m189.15,298.78s-47.26,116.67-48.48,121.78,2.33,5.22,2.33,5.22l24.37,1.3,47.19-119.33-5.11-4.67"></path>
  <path id="SvgjsPath1001" class="cls-2" d="m241.11,140.67s14-15.67,29.33,0c0,0,5.11,5.11,13,4.33,9.19-.07,18.44,8.3,17.48,18.37,0,0-.65,8.13,6.44,14.15,0,0,11.63,13.37-1.37,26.15,0,0-5.59,5.11-5.07,10.81s-1.48,19.74-18.48,20.3c0,0-8.33,0-12.89,5s-13.07,9.89-25.07,2.26c0,0-6.67-7.04-12.07-7.11-6.15-.15-20.07-.7-21.3-19.04,0,0-.44-7.39-4.44-11.78-3.94-3.28-12.83-15.33-.5-28.17,0,0,4.54-4.2,5.06-11.31s.67-16.89,16.3-19.41c0,0,9.26.3,13.59-4.56Z"></path>
  <path id="SvgjsPath1000" class="cls-3" d="m387.11,191.07c.16-26.75-13.42-42.76-17.44-46.91-.69-.71-1.08-1.65-1.08-2.64-.03-5.68-1.46-25.95-18.99-43.48-19.17-19.55-39.93-20.68-45.67-20.59-1.03.02-2-.39-2.75-1.1-19.54-18.62-42.92-17.38-44.87-17.24-.1,0-.2,0-.3,0-25.67-.51-41.57,13.23-45.34,16.89-.6.59-1.38.95-2.22,1.06-13.8,1.73-24.71,2.23-43.44,18.16-18.95,16.39-21.58,40.71-21.94,47.02-.06.96-.46,1.86-1.15,2.53-3.86,3.73-16.64,18.14-16.98,45.68.77,27.56,13.14,41.04,17.27,44.78.8.73,1.27,1.75,1.26,2.84-.05,5.26.97,21.75,14.29,38.5,17.3,22.63,44.07,25.96,50.35,26.44.86.07,1.67.41,2.31,1,7.75,7.14,26.13,17.74,49.26,17.45,20.83-.26,38.02-13.96,42.35-17.72.68-.59,1.53-.93,2.43-.94,4.31-.09,18.03-1.14,31.66-10.22,29.69-17.89,32.38-47.8,32.58-55,.03-1,.45-1.95,1.17-2.65,4.04-3.9,17.25-18.58,17.25-43.83Zm-48.91,28.82c-1.29.98-3.89,3.58-3.01,8.3.02.09.03.17.04.26.69,7.06-5.66,37.47-39.34,40.58-.53.05-1.06.02-1.59-.06-1.7-.24-6.13-.42-9.3,3.58-2.44,4.77-30.96,24.23-57.68.85-.13-.11-.25-.24-.36-.37-.75-.89-4.33-4.66-10.52-4.04-6.87,1.55-38.07-7.73-39.77-41.42,0-.15,0-.3,0-.45.07-1.02.13-5.77-4.02-9.02-4.62-3.63-22.34-29.74-.93-56.05.32-.39.7-.74,1.12-1.02,1.21-.78,4.1-3.3,3.92-9.49-.66-6.53,6.62-38.67,38.45-40.54.19-.01.38,0,.57,0,1.34.12,7.74.43,10.42-3.8,0,0,28.33-27.12,58.97-.32.21.18.39.38.55.6.65.91,3.07,3.67,8.22,3.42,6.13-.3,38.54,3.94,41.13,39.69.01.17,0,.33,0,.5-.1,1.18-.31,6.66,4.13,10.22,4.95,3.96,23.15,29.33.43,57.19-.42.52-.91.97-1.45,1.37Z"></path>
</svg><style>@media (prefers-color-scheme: light) { :root { filter: none; } }
</style></svg>