<?xml version="1.0" encoding="UTF-8"?>
<svg id="bass-clef" xmlns="http://www.w3.org/2000/svg" viewBox="0 0 399.78 461.27">
  <defs>
    <style>
      .cls-1 {
        fill: #3fff57;
        stroke-width: 0px;
      }
    </style>
  </defs>
  <g id="bass-clef-2" data-name="bass-clef">
    <path class="cls-1" d="m30.45,97.12s11.74-45.74,58-65.22,105.89.56,128.44,63.28c0,0,18.41,49.09-1.52,118.28s-80.81,138.37-112.3,167.93-66.22,55.63-99.04,68.52c0,0-8.04,5.33,7.63,10.44,0,0,20.67,8.44,86.78-25.67s121.89-95.96,142.78-124.44,47.56-73.22,51.33-111.22,1.19-73.85-5.85-96.59-20.37-59.04-71.26-86.22S86.78-4.32,42.34,39.01c0,0-44.89,35.78-42.22,99.56s55.78,59.78,55.78,59.78c0,0,48.44.22,52.22-53.33-2.44-53.78-55.11-61.11-77.67-47.89Z"/>
    <circle class="cls-1" cx="371" cy="75.79" r="28.78"/>
    <circle class="cls-1" cx="371" cy="213.68" r="28.78"/>
  </g>
</svg>