<?xml version="1.0" encoding="UTF-8"?>
<svg id="sixteenth-note" xmlns="http://www.w3.org/2000/svg" viewBox="0 0 217.56 401.8">
  <defs>
    <style>
      .cls-1 {
        fill: #2aff39;
        stroke-width: 0px;
      }
    </style>
  </defs>
  <path id="sixteenth-note-2" data-name="sixteenth-note" class="cls-1" d="m114.51,166.37v173.81c-.59,5.19-1.72,17.93-19.28,36.48s-51.89,27.33-67.33,24.67S.45,386.07.16,374.67s-1.63-21.04,14.22-41.78,42.3-31.72,62.07-31.56,28.67,7.41,28.67,7.41V0h11.33s2.67,22.96,17.63,36.44,29.93,26.07,49.04,48.59,26.96,51.26,31.11,81.48v35.7h-8.59v-26.96s-6.22-42.81-34.81-69.93c0,0-25.48-23.26-51.11-26.96l-2.81.3s-.15,25.48,35.11,62.52,48.44,48.37,62,85.04c0,0,14.44,41.78-14.89,93.33,0,0-7.78.67-9.11-5.33,0,0,16.89-28.89,15.33-56.89s-5.33-38.96-24.89-56.59c0,0-30.11-30.96-65.94-34.37Z"/>
</svg>