<?xml version="1.0" encoding="UTF-8"?>
<svg id="eighth-note" xmlns="http://www.w3.org/2000/svg" viewBox="0 0 188.13 284.83">
  <defs>
    <style>
      .cls-1 {
        fill: #4fff15;
        stroke-width: 0px;
      }
    </style>
  </defs>
  <path id="eighth-note-2" data-name="eighth-note" class="cls-1" d="m162.75,186.09h5.61c39.33-64.44,9-101.67,2-111.33s-25.89-25.22-34.22-32-15.67-15.67-15.67-15.67C110.14,14.31,110.57,0,110.57,0l-18.07.02.19,205.82s-7.49-5.33-25.15-5.43-35.1,7.81-41.99,12.7S-3.88,234.81.58,257.47c4.46,22.66,26.25,25.87,36.25,27.08,19.15,2.43,71.43-10.73,73.84-50.33l-.15-166.8s53.85-2.45,63.85,51.77c0,0,7.22,24.67-11.61,66.89Z"/>
</svg>