<?xml version="1.0" encoding="utf-8"?>
<!-- Generator: Adobe Illustrator 28.0.0, SVG Export Plug-In . SVG Version: 6.00 Build 0)  -->
<svg version="1.1" id="Layer_1" xmlns="http://www.w3.org/2000/svg" xmlns:xlink="http://www.w3.org/1999/xlink" x="0px" y="0px"
	 viewBox="0 0 512 512" enable-background="new 0 0 512 512" xml:space="preserve">
<g>
	<defs>
		<rect id="SVGID_1_" width="512" height="512"/>
	</defs>
	<clipPath id="SVGID_00000046321198081790809820000010845754723103483293_">
		<use xlink:href="#SVGID_1_"  overflow="visible"/>
	</clipPath>
	<g id="favicon" clip-path="url(#SVGID_00000046321198081790809820000010845754723103483293_)">
		<g id="HJ">
			<path id="h-top-left" fill="#FFFFFF" d="M137.33,240V136.15h53.48v73.19h38.07c0,0-3.7,7.7-4.44,12.89
				C224.44,222.22,167.7,210.22,137.33,240z"/>
			<path id="h-top-right" fill="#FFFFFF" d="M244,183.59v-47.44h53.56v8.33C297.56,144.48,266.11,153.48,244,183.59z"/>
			<path id="h-bottom-left" fill="#FFFFFF" d="M137.63,293.33v82.81h53.33v-73.48h30.37c0,0-7.85-5.63-20.3-5.93
				c-12.44-0.3-18.96,4.44-18.96,4.44s-6.37,4.59-20,3.7C148.44,304,137.63,293.33,137.63,293.33z"/>
			<path id="h-bottom-right" fill="#FFFFFF" d="M244.15,329.19v47.11h53.33v-8.44C297.48,367.85,269.19,359.56,244.15,329.19z"/>
			<path id="c-top" fill="#CD2E3A" d="M382.89,159.63c0,0,20.78,8.07,14,33.19c-10.78,25.44-36.56,15.11-36.56,15.11
				s-26.67-13.33-51.22,3.33c-25,15.78-24.44,43.22-24.44,43.22s-22.33-22.67-48.89-29.44c0,0,10.89-42.89,53.56-64
				C340.22,135.93,382.89,159.63,382.89,159.63z"/>
			<path id="c-bottom" fill="#0047A0" d="M382.96,353.04c0,0,20.89-10.07,13.63-33.48c-10.96-26.07-36.15-14.81-36.15-14.81
				s-21.93,12.52-48.96-2.15c-12.96-6.37-22.15-23.56-22.15-23.56s-20.89-37.41-71.7-46.15c0,0-32.74-6.41-63.52,9.37
				c-21.89,10.78-13.22,34.67-13.22,34.67s9.11,23.11,35.67,13.56c22-11.33,44.56-1.44,44.56-1.44s16.67,6.67,24,20.44
				c0,0,12.44,19.93,25.44,29.22c0,0,20.22,20.11,56.67,23.67C364,364.93,382.96,353.04,382.96,353.04z"/>
		</g>
		<path fill="#FFFFFF" d="M256,22.81C127.22,22.81,22.81,127.22,22.81,256S127.22,489.19,256,489.19S489.19,384.78,489.19,256
			S384.78,22.81,256,22.81z M256,457.19c-111.11,0-201.19-90.07-201.19-201.19S144.89,54.81,256,54.81S457.19,144.89,457.19,256
			S367.11,457.19,256,457.19z"/>
	</g>
</g>
<g>
</g>
<g>
</g>
<g>
</g>
<g>
</g>
<g>
</g>
<g>
</g>
<g>
</g>
<g>
</g>
<g>
</g>
<g>
</g>
<g>
</g>
<g>
</g>
<g>
</g>
<g>
</g>
<g>
</g>
</svg>
