<?xml version="1.0" encoding="UTF-8"?>
<svg id="quarter-rest-note" xmlns="http://www.w3.org/2000/svg" viewBox="0 0 116 318.23">
  <defs>
    <style>
      .cls-1 {
        fill: #51d400;
        stroke-width: 0px;
      }
    </style>
  </defs>
  <path id="quarter-rest-note-2" data-name="quarter-rest-note" class="cls-1" d="m40.06,0s23.91,17.94,60.39,64.94c0,0,6.7,8.48,8.93,19.44.74,13.04-18.37,27.7-26.37,37.63,0,0-11,16.37-14,25.81s-3.44,22.33,2.89,36.11,12.22,24.78,23.22,40.78,20.89,32.22,20.89,32.22c0,0-9.33-2.22-15.33-3.33s-40.04-5.37-52.48,10.04c-12.44,15.41-10.3,30.67-2.44,43.04,0,0,7.7,10.22,8.67,11.48s-28.74-15.33-35.63-22S0,278.83,0,257.83s9.52-37.44,58.56-40.11l-15.85-26.22s-16.89-23.85-21.33-30.81-14.07-22.81-1.33-42.96c0,0,5.33-9.04,24.15-33.63,0,0,12-18.07,10.37-36.44-.44-18.52-11.07-37.37-14.5-47.65Z"/>
</svg>